<svg width="42" height="43" viewBox="0 0 42 43" fill="none" xmlns="http://www.w3.org/2000/svg">
<path d="M15.1224 0.317297C15.5291 -0.105766 16.1887 -0.105766 16.5955 0.317297L20.3357 4.2071L24.0659 0.327709C24.4727 -0.0953548 25.1323 -0.0953548 25.539 0.327709C25.9458 0.750783 25.9458 1.43671 25.539 1.85978L21.8088 5.73917L25.4343 9.50972C25.8411 9.93276 25.8411 10.6187 25.4343 11.0418C25.0276 11.4648 24.368 11.4648 23.9612 11.0418L20.3357 7.27123L16.7002 11.0522C16.2934 11.4752 15.6339 11.4752 15.2271 11.0522C14.8203 10.6291 14.8203 9.94316 15.2271 9.52012L18.8626 5.73917L15.1224 1.84936C14.7156 1.4263 14.7156 0.740361 15.1224 0.317297Z" fill="#8C4009"/>
<path fill-rule="evenodd" clip-rule="evenodd" d="M20.3065 11.5343C20.5203 11.4602 20.7514 11.4602 20.9652 11.5343L36.3591 16.8699C36.566 16.9317 36.7544 17.0601 36.893 17.2453L41.0629 22.8116C41.2708 23.0891 41.3362 23.4543 41.2383 23.791C41.1713 24.0214 41.0335 24.2189 40.8504 24.3563L24.8094 29.9126L21.4576 25.4383C21.2601 25.1746 20.9564 25.0205 20.635 25.0208C20.3135 25.0211 20.0102 25.1757 19.8131 25.4397L16.4795 29.9054L0.39233 24.3245C0.229215 24.1893 0.106591 24.0043 0.0445906 23.791C-0.0532949 23.4543 0.0120903 23.0891 0.219955 22.8116L4.31486 17.3454C4.44014 17.1327 4.63523 16.966 4.87389 16.8833L20.3065 11.5343ZM32.7739 17.9111L20.6401 22.1167L8.50206 17.9096L20.6359 13.704L32.7739 17.9111Z" fill="#8C4009"/>
<path d="M24.7692 32.2102L37.1097 27.9357L37.1091 35.055C37.1091 36.4538 36.2484 37.6957 34.9724 38.138L21.6776 42.7469V29.2574L23.6183 31.8482C23.8896 32.2102 24.3506 32.3552 24.7692 32.2102Z" fill="#8C4009"/>
<path d="M19.5942 29.266V42.7469L6.29935 38.138C5.02332 37.6957 4.16261 36.4538 4.16253 35.055L4.16208 27.9163L16.5202 32.2035C16.9396 32.349 17.4015 32.2034 17.6726 31.8403L19.5942 29.266Z" fill="#8C4009"/>
</svg>
