<svg width="50" height="52" viewBox="0 0 50 52" fill="none" xmlns="http://www.w3.org/2000/svg">
<path d="M41.4556 24.6156L22.5577 5.60179C21.7619 4.7994 20.2333 4.7994 19.4375 5.60179L0.539606 24.6156C0.267594 24.8886 0.0890478 25.2273 0.025676 25.5905C-0.0376957 25.9537 0.0168375 26.3258 0.182645 26.6615C0.518608 27.3479 1.27032 27.789 2.09973 27.789H6.29926V41.0986C6.29926 41.6029 6.52049 42.0865 6.91427 42.4431C7.30805 42.7997 7.84213 43 8.39903 43H14.6983C15.2552 43 15.7893 42.7997 16.1831 42.4431C16.5769 42.0865 16.7981 41.6029 16.7981 41.0986V33.4931H25.1971V41.0986C25.1971 41.6029 25.4184 42.0865 25.8122 42.4431C26.2059 42.7997 26.74 43 27.2969 43H33.5962C34.1531 43 34.6872 42.7997 35.081 42.4431C35.4748 42.0865 35.696 41.6029 35.696 41.0986V27.789H39.8955C40.3022 27.7905 40.7005 27.6849 41.0421 27.485C41.3836 27.2851 41.6535 26.9996 41.8189 26.6632C41.9843 26.3267 42.038 25.954 41.9735 25.5905C41.909 25.2269 41.7291 24.8882 41.4556 24.6156Z" fill="#8C4009"/>
</svg>
