<svg width="42" height="42" viewBox="0 0 42 42" fill="none" xmlns="http://www.w3.org/2000/svg">
<path d="M41.4556 21.6804L22.5577 0.665132C21.7619 -0.221711 20.2333 -0.221711 19.4375 0.665132L0.539606 21.6804C0.267594 21.9821 0.0890478 22.3565 0.025676 22.7579C-0.0376957 23.1594 0.0168375 23.5706 0.182645 23.9416C0.518608 24.7003 1.27032 25.1878 2.09973 25.1878H6.29926V39.8985C6.29926 40.4558 6.52049 40.9904 6.91427 41.3845C7.30805 41.7786 7.84213 42 8.39903 42H14.6983C15.2552 42 15.7893 41.7786 16.1831 41.3845C16.5769 40.9904 16.7981 40.4558 16.7981 39.8985V31.4924H25.1971V39.8985C25.1971 40.4558 25.4184 40.9904 25.8122 41.3845C26.2059 41.7786 26.74 42 27.2969 42H33.5962C34.1531 42 34.6872 41.7786 35.081 41.3845C35.4748 40.9904 35.696 40.4558 35.696 39.8985V25.1878H39.8955C40.3022 25.1895 40.7005 25.0728 41.0421 24.8519C41.3836 24.6309 41.6535 24.3153 41.8189 23.9435C41.9843 23.5717 42.038 23.1597 41.9735 22.7579C41.909 22.356 41.7291 21.9816 41.4556 21.6804Z" fill="#8C4009"/>
</svg>
