<svg width="48" height="48" viewBox="0 0 48 48" fill="none" xmlns="http://www.w3.org/2000/svg">
<path d="M16 17.6C16 13.1817 19.5817 9.60001 24 9.60001C28.4183 9.60001 32 13.1817 32 17.6C32 22.0183 28.4183 25.6 24 25.6C19.5817 25.6 16 22.0183 16 17.6Z" fill="#8C4009"/>
<path fill-rule="evenodd" clip-rule="evenodd" d="M24 0C10.7452 0 0 10.7452 0 24C0 37.2547 10.7452 48 24 48C37.2547 48 48 37.2547 48 24C48 10.7452 37.2547 0 24 0ZM3.2 24C3.2 12.5125 12.5125 3.2 24 3.2C35.4877 3.2 44.8 12.5125 44.8 24C44.8 29.9186 42.328 35.2598 38.36 39.0477C37.8768 33.3075 33.065 28.8 27.2 28.8H20.8C14.9352 28.8 10.123 33.3075 9.6399 39.0477C5.67203 35.2598 3.2 29.9186 3.2 24Z" fill="#8C4009"/>
</svg>
